HIERARCHY
ROOT Hips
{
	OFFSET -3.958830 18.904000 13.208200
	CHANNELS 6 Xposition Yposition Zposition Zrotation Yrotation Xrotation 
	JOINT LHipJoint
	{
		OFFSET 0.000000 0.000000 0.000000
		CHANNELS 3 Zrotation Yrotation Xrotation
		JOINT LeftUpLeg
		{
			OFFSET 1.800000 -1.400000 0.085000
			CHANNELS 3 Zrotation Yrotation Xrotation
			JOINT LeftLeg
			{
				OFFSET 2.215000 -6.000000 0.000000
				CHANNELS 3 Zrotation Yrotation Xrotation
				JOINT LeftFoot
				{
					OFFSET 2.500000 -6.900000 0.000000
					CHANNELS 3 Zrotation Yrotation Xrotation
					JOINT LeftToeBase
					{
						OFFSET 0.200000 -0.500000 1.950000
						CHANNELS 3 Zrotation Yrotation Xrotation
						End Site
						{
							OFFSET 0.000000 0.000000 0.000000
						}
					}
				}
			}
		}
	}
	JOINT RHipJoint
	{
		OFFSET 0.000000 0.000000 0.000000
		CHANNELS 3 Zrotation Yrotation Xrotation
		JOINT RightUpLeg
		{
			OFFSET -1.800000 -1.400000 0.085000
			CHANNELS 3 Zrotation Yrotation Xrotation
			JOINT RightLeg
			{
				OFFSET -2.215000 -6.000000 0.000000
				CHANNELS 3 Zrotation Yrotation Xrotation
				JOINT RightFoot
				{
					OFFSET -2.500000 -6.900000 0.000000
					CHANNELS 3 Zrotation Yrotation Xrotation
					JOINT RightToeBase
					{
						OFFSET -0.200000 -0.500000 1.950000
						CHANNELS 3 Zrotation Yrotation Xrotation
						End Site
						{
							OFFSET 0.000000 0.000000 0.000000
						}
					}
				}
			}
		}
	}
	JOINT LowerBack
	{
		OFFSET 0.000000 0.000000 0.000000
		CHANNELS 3 Zrotation Yrotation Xrotation
		JOINT Spine
		{
			OFFSET -0.087000 1.940000 -0.288900
			CHANNELS 3 Zrotation Yrotation Xrotation
			JOINT Spine1
			{
				OFFSET 0.000000 1.950000 0.060000
				CHANNELS 3 Zrotation Yrotation Xrotation
				JOINT Neck
				{
					OFFSET 0.000000 0.000000 0.000000
					CHANNELS 3 Zrotation Yrotation Xrotation
					JOINT Neck1
					{
						OFFSET 0.000000 1.600000 0.340000
						CHANNELS 3 Zrotation Yrotation Xrotation
						JOINT Head
						{
							OFFSET 0.000000 1.667000 -0.240000
							CHANNELS 3 Zrotation Yrotation Xrotation
							End Site
							{
								OFFSET 0.000000 0.000000 0.000000
							}
						}
					}
				}
				JOINT LeftShoulder
				{
					OFFSET 0.000000 0.000000 0.000000
					CHANNELS 3 Zrotation Yrotation Xrotation
					JOINT LeftArm
					{
						OFFSET 2.700000 1.550000 -0.730000
						CHANNELS 3 Zrotation Yrotation Xrotation
						JOINT LeftForeArm
						{
							OFFSET 5.450000 0.000000 0.000000
							CHANNELS 3 Zrotation Yrotation Xrotation
							JOINT LeftHand
							{
								OFFSET 3.450000 0.000000 0.000000
								CHANNELS 3 Zrotation Yrotation Xrotation
								JOINT LeftHandIndex1
								{
									OFFSET 0.750000 0.000000 0.000000
									CHANNELS 3 Zrotation Yrotation Xrotation
									End Site
									{
										OFFSET 0.000000 0.000000 0.000000
									}
								}
							}
						}
					}
				}
				JOINT RightShoulder
				{
					OFFSET 0.000000 0.000000 0.000000
					CHANNELS 3 Zrotation Yrotation Xrotation
					JOINT RightArm
					{
						OFFSET -2.700000 1.550000 -0.730000
						CHANNELS 3 Zrotation Yrotation Xrotation
						JOINT RightForeArm
						{
							OFFSET -5.450000 0.000000 0.000000
							CHANNELS 3 Zrotation Yrotation Xrotation
							JOINT RightHand
							{
								OFFSET -3.450000 0.000000 0.000000
								CHANNELS 3 Zrotation Yrotation Xrotation
								JOINT RightHandIndex1
								{
									OFFSET -0.750000 0.000000 0.000000
									CHANNELS 3 Zrotation Yrotation Xrotation
									End Site
									{
										OFFSET 0.000000 0.000000 0.000000
									}
								}
							}
						}
					}
				}
			}
		}
	}
}
MOTION
Frames: 8
Frame Time: 0.016667
-2.464420 18.106050 -3.036630 -22.102299 1.041614 3.108754 -16.085968 13.004629 5.477790 29.554037 -4.286370 -32.582031 -16.591415 15.239188 34.623210 0.536591 8.908980 1.122421 0.025040 0.027380 -0.006300 17.607237 -9.688089 1.555917 -8.343688 1.042828 -28.529519 -21.660479 1.253150 34.533087 -0.483957 -4.451458 2.644809 -0.073190 0.023850 0.077690 -1.365785 -4.659061 -8.736494 -3.949486 8.166367 36.350855 7.686812 10.236656 -0.986388 4.007997 3.940160 -9.460128 0.513267 -4.871418 50.665209 10.994910 -4.826750 -5.801170 -16.209101 0.918308 -0.564291 -49.818616 -6.730164 -7.757452 -27.903776 -75.031161 17.230857 -3.388977 3.312536 0.420490 -0.137480 0.265100 0.045260 9.415280 0.837831 8.984607 30.002553 -34.246141 -12.106619 20.091648 -21.098556 -6.782010 2.918604 -0.693407 -0.056350 0.157700 0.050060 0.001530 
-2.251830 17.968530 -3.101850 -23.998852 1.325057 2.522704 -15.973372 13.082218 5.249297 30.195571 -3.729244 -30.388363 -15.837987 13.821242 31.007238 0.387220 8.310002 1.324856 0.029050 0.024640 -0.017440 17.686298 -9.756378 1.706798 -9.444511 0.718656 -31.047431 -24.678755 1.973087 39.901564 -0.698575 -5.557559 2.256017 -0.060430 0.044140 0.069530 -1.649504 -4.589541 -8.813923 -0.999953 5.747978 39.499114 4.304660 9.010692 -1.411217 4.858556 2.887680 -9.085400 -1.467329 -4.885513 49.020319 11.529100 -5.886680 -7.249400 -17.745971 2.242299 -1.445336 -50.233596 -7.347316 -6.118282 -29.236761 -84.145309 21.452529 -3.395848 3.321977 0.435700 -0.143900 0.254350 0.054710 8.803067 -0.316983 8.857889 27.145865 -35.428888 -10.887052 16.243993 -17.986570 -5.113640 2.887861 -0.645045 -0.076470 0.188890 0.058360 0.005120 
-2.046660 17.843470 -3.155480 -25.568698 2.788936 1.806901 -15.882072 13.029984 5.146669 30.509417 -3.646715 -29.441130 -15.762627 13.216062 29.386436 0.371758 8.019750 1.420141 0.052370 0.064260 -0.019240 17.774051 -9.786604 1.809067 -10.302163 0.043819 -33.197851 -28.836844 3.255051 44.937437 -0.997936 -6.806519 1.838145 -0.055090 0.024840 0.065340 -1.928524 -4.488145 -8.878981 1.929002 3.662050 43.025245 1.978191 8.105100 -2.591057 5.432541 2.312986 -8.863563 -2.243597 -5.447856 46.970909 13.939440 -6.876190 -9.691390 -18.972710 3.195650 -2.668017 -52.494479 -7.784093 -6.251543 -102.446561 -85.691614 94.081252 -3.618887 -0.209136 0.450840 -0.181800 0.282990 0.068620 8.686461 -1.444764 9.287528 27.093275 -39.489405 -10.452030 11.570724 -9.824557 -2.989369 2.814777 -0.607549 -0.056120 0.187440 0.035170 0.022150 
-1.801210 17.734620 -3.198720 -27.757319 3.898965 1.871366 -16.004381 13.085631 5.228856 30.947872 -3.599699 -30.835376 -15.161631 13.299511 30.456747 0.333183 8.117495 1.356528 0.049030 0.019080 0.050350 17.705917 -9.508929 1.820213 -10.644520 -0.221884 -34.522236 -31.388322 4.131984 47.935599 -1.197985 -7.559789 1.562778 -0.085340 -0.046530 0.078630 -1.680447 -5.094674 -8.971913 3.118772 3.545175 46.411563 2.057057 9.178740 -5.206064 7.110131 3.733544 -8.770750 0.945985 -8.548889 43.840020 15.063090 -7.313220 -12.920890 -21.872631 4.428465 -2.682694 -58.723317 -5.870211 -4.830431 -146.940306 -77.138704 134.733344 -3.176783 2.827409 0.528340 -0.227060 0.319210 0.011070 8.234874 -2.774934 9.766251 27.831389 -42.026870 -10.142138 6.640056 -4.409839 -1.409821 2.769202 -0.601325 -0.069470 0.148030 0.042010 -0.039050 
-1.558080 17.675490 -3.244570 -29.702805 1.902638 1.463922 -15.989281 13.010970 5.105785 31.194579 -3.414889 -30.022248 -14.963679 13.722729 31.655795 0.351758 8.321086 1.274021 0.057220 0.032020 0.084140 17.742722 -9.392428 2.011495 -8.945842 0.297242 -35.718666 -36.645153 6.417047 47.482963 -1.416767 -8.186101 1.379118 -0.082330 -0.060750 0.092470 -1.734423 -4.970465 -9.005231 2.641524 2.359168 48.167470 0.596357 7.859188 -4.673405 8.031047 5.465803 -9.537659 5.144259 -8.522348 44.975263 15.640760 -4.843440 -13.151830 -25.216187 2.053851 -1.596650 -60.721220 -4.093095 -4.547200 -174.543296 -72.703087 166.371498 -3.230771 3.157929 0.563340 -0.223510 0.352550 -0.001670 9.480404 -1.912607 10.185064 27.113208 -38.542756 -8.540745 0.934228 0.531173 -0.032069 2.719429 -0.696643 -0.076170 0.145340 0.039610 -0.065950 
-1.326530 17.666130 -3.296790 -30.565061 -1.851104 0.864032 -15.868061 12.760114 4.850925 30.729005 -3.428263 -27.780567 -16.115378 14.507268 32.435566 0.409357 8.626289 1.186133 0.098900 0.100860 0.086900 17.877739 -9.272963 2.436265 -7.431369 1.557584 -38.409554 -42.002285 8.903433 47.254746 -1.660007 -8.991579 1.153317 -0.027380 -0.025860 0.105340 -2.054243 -4.398767 -9.053274 2.508056 0.867368 48.583183 -2.383579 5.911542 -1.486952 8.356264 5.834319 -9.594543 6.475082 -6.661286 45.949762 15.223330 -2.306570 -13.399220 -28.784388 -1.852773 -1.190241 -57.446554 -7.303104 -4.104817 159.383284 -71.838320 -159.777855 -3.386430 3.250345 0.548630 -0.193400 0.351300 0.026150 12.108987 0.295001 10.388621 24.794956 -34.835800 -7.011095 -2.333857 6.029876 0.370674 2.601985 -0.850084 -0.078240 0.176420 0.032940 -0.056100 
-1.113910 17.677500 -3.306600 -30.864421 -4.139132 0.322391 -15.730016 12.591816 4.614065 29.348040 -3.757362 -26.316721 -16.660308 14.832037 33.179925 0.449348 8.730137 1.173999 0.134100 0.163160 0.086880 18.001206 -9.290946 2.755395 -6.562892 2.351905 -40.365941 -45.198624 10.561710 48.274948 -1.846100 -9.708090 0.958377 0.026160 0.004810 0.097280 -2.394233 -3.863148 -9.051695 2.939064 -0.637952 48.535934 -5.089472 4.165368 1.121431 8.371598 6.110739 -9.490301 7.285827 -5.001120 47.188658 14.824070 -0.539170 -12.581830 -30.355940 -4.853147 -0.892389 -52.313353 -11.402613 -2.132052 131.249500 -67.638206 -120.772459 -3.649892 2.867199 0.511840 -0.165390 0.333570 0.053370 13.566194 1.688590 10.381307 23.341657 -32.331312 -6.399015 -4.462111 10.748594 0.351399 2.516891 -0.972470 -0.081270 0.202530 0.017350 -0.041780 
-0.866010 17.714590 -3.272590 -31.463937 -6.387892 0.089769 -15.593791 12.468085 4.467812 27.864843 -4.128113 -24.409147 -18.508502 15.177211 32.463637 0.556151 8.783193 1.189321 0.127840 0.183110 0.046670 18.113241 -9.302784 3.013146 -5.263640 3.188137 -42.075056 -45.181847 11.295230 51.181561 -1.941419 -10.257625 0.812889 0.036280 0.041500 0.104700 -2.721601 -3.477198 -9.067079 4.212259 -2.611068 48.081225 -7.341546 2.374503 3.289532 8.116799 5.928712 -9.902831 6.984260 -2.958966 49.090640 13.356400 0.532070 -9.503400 -31.605443 -8.841232 -0.175387 -44.668732 -14.306084 -4.033385 105.138660 -64.095318 -79.830265 -3.589743 1.440209 0.429610 -0.121000 0.300280 0.078190 15.188381 4.647523 11.222727 21.396101 -30.435163 -5.346634 -7.888182 11.668028 0.239301 2.518380 -1.090930 -0.055110 0.187220 0.012800 -0.002940 
